<?xml version="1.0" encoding="UTF-8"?>
<svg xmlns="http://www.w3.org/2000/svg" viewBox="0 0 5120 5120">
  <defs>
    <linearGradient id="a" x2="0" y2="100%">
      <stop offset="0" stop-color="#19d7ff"/>
      <stop offset="1" stop-color="#1e64f0"/>
    </linearGradient>
  </defs>

  <!-- Gradient background -->
  <rect width="5120" height="5120" fill="url(#a)"/>

  <!-- White background circle -->
  <circle cx="2560" cy="2560" r="2240" fill="white"/>

  <!-- Compass ticks -->
  <path stroke="#ff2000" stroke-width="30" d="
    M2560 540v330m0 3370v330
    m350-4e3-57 325m-586 3318-57 327
    M3250 662l-113 310M1984 4138l-113 310
    m339-3878 57 325m586 3318 57 327
    M1870 662l113 310m1152 3166 113 310
    M1552 810l166 286m1685 2918 165 286
    M1265 1010l212 253m2166 2582 212 253
    M1015 1258l253 212m2582 2168 253 212
    M813 1548l286 165m2920 1685 286 165
    M665 1866l310 113m3166 1150 310 113
    M574 2202l326 58m3320 588 325 57
    M545 2555h330m3370 0h330
    M575 2905l325-57m3320-586 325-57
    M668 3245l310-113m3165-1152 310-113
    M815 3563l286-165m2920-1685 286-165
    M1016 3850l253-212m2580-2166 253-212
    M1262 41e2l212-253m2166-2582 212-253
    M1552 43e2l166-286m1685-2918 165-286
    M2384 548l16 180m320 3656 16 180
    M2038 610l47 174m950 3544 47 174
    M1708 730l76 163m1550 3326 77 163
    M1404 904l103 148m2106 3006 103 148
    M1135 1130l127 127m2596 2596 127 127
    M910 14e2l148 103m3006 2107 146 1e2
    M734 1703l163 76m3326 1550 163 77
    M614 2033l174 47m3544 950 174 47
    M553 2380l180 16m3656 320 180 16m-4014 0 180-16m3656-320 180-16
    M614 3077l174-47m3544-950 174-47
    M734 3407l163-76m3326-1550 163-76
    M910 3710l148-103m3006-2107 146-1e2
    M1404 4206l103-148m2105-3006 104-148
    M1708 4380l77-163M3335 890l77-163
    M2038 45e2l47-174m950-3544 47-174m-698 3952 16-180m320-3656 16-180
  "/>

    <!-- New Lion Drawing (Adobe Illustrator SVG) -->
    <g transform="translate(1396,1557) scale(1.75)">
    <!-- Inverse lion shape -->
    <path fill="#ff2000" d="M 288.5,92.5 C 308.503,92.3334 328.503,92.5 348.5,93C 365.031,93.9218 381.365,96.2551 397.5,100C 443.178,112.114 488.511,125.448 533.5,140C 545.593,143.628 556.426,149.461 566,157.5C 570.773,164.044 574.773,171.044 578,178.5C 579.526,188.115 579.859,197.781 579,207.5C 561.686,296.718 545.019,386.051 529,475.5C 523.174,505.271 519.84,535.271 519,565.5C 519.737,569.047 521.57,571.88 524.5,574C 529.186,576.845 534.186,578.845 539.5,580C 578.197,589.406 617.197,597.406 656.5,604C 664.167,604.667 671.833,604.667 679.5,604C 721.174,597.332 762.507,588.999 803.5,579C 807.286,577.607 810.952,575.941 814.5,574C 817.231,571.374 819.064,568.207 820,564.5C 820.12,547.415 818.787,530.415 816,513.5C 796.95,411.25 778.284,308.917 760,206.5C 759.109,196.772 759.443,187.106 761,177.5C 764.933,168.241 770.433,160.075 777.5,153C 784.942,147.946 792.942,143.946 801.5,141C 848.409,125.361 895.743,111.361 943.5,99C 973.863,92.8978 1004.53,90.8978 1035.5,93C 1085.62,95.412 1135.62,99.412 1185.5,105C 1198.81,106.059 1211.47,109.392 1223.5,115C 1234.47,125.915 1233.81,136.248 1221.5,146C 1128.24,181.863 1034.91,217.53 941.5,253C 918.041,262.147 897.541,275.647 880,293.5C 871.855,304.166 869.189,316.166 872,329.5C 877.301,353.733 885.968,376.733 898,398.5C 913.414,426.329 929.08,453.996 945,481.5C 953.194,496.555 960.861,511.888 968,527.5C 975.875,545.295 977.542,563.629 973,582.5C 970.499,587.506 967.499,592.173 964,596.5C 954.757,605.747 944.924,614.247 934.5,622C 886.019,655.414 836.352,687.081 785.5,717C 760.59,732.908 737.756,751.408 717,772.5C 715,775.833 713,779.167 711,782.5C 710.409,789.069 712.076,795.069 716,800.5C 724.863,813.703 734.863,826.036 746,837.5C 783.294,875.151 823.794,908.651 867.5,938C 907.925,962.545 950.258,983.378 994.5,1000.5C 994.833,1001 995.167,1001.5 995.5,1002C 983.525,1038.09 971.858,1074.26 960.5,1110.5C 956.675,1109.93 953.009,1108.76 949.5,1107C 854.834,1064.11 760.001,1021.61 665,979.5C 571.983,1021.17 478.983,1062.84 386,1104.5C 373.897,1068.86 362.23,1033.19 351,997.5C 408.178,975.504 461.345,946.671 510.5,911C 541.128,887.05 569.961,860.883 597,832.5C 605.389,823.379 613.055,813.713 620,803.5C 623.372,798.218 625.872,792.552 627.5,786.5C 625.824,779.993 622.657,774.326 618,769.5C 599.566,751.055 579.399,734.888 557.5,721C 506.822,689.998 456.822,657.998 407.5,625C 394.783,615.956 382.949,605.789 372,594.5C 367.973,589.783 364.973,584.449 363,578.5C 362,569.179 361.667,559.845 362,550.5C 363.659,541.857 366.325,533.524 370,525.5C 390.812,484.531 413.146,444.531 437,405.5C 450.014,382.812 459.68,358.812 466,333.5C 466.667,325.5 466.667,317.5 466,309.5C 464.388,303.609 461.721,298.275 458,293.5C 442.634,277.816 424.801,265.649 404.5,257C 311.222,220.684 217.555,185.351 123.5,151C 116,147.5 110.5,142 107,134.5C 105.325,122.688 110.158,114.855 121.5,111C 125.167,110 128.833,109 132.5,108C 184.532,101.611 236.532,96.4442 288.5,92.5 Z"/>
  </g>
</svg>