<?xml version="1.0" encoding="UTF-8"?>
<svg xmlns="http://www.w3.org/2000/svg" viewBox="0 0 5120 5120">
  <defs>
    <linearGradient id="a" x2="0" y2="100%">
      <stop offset="0" stop-color="#19d7ff"/>
      <stop offset="1" stop-color="#1e64f0"/>
    </linearGradient>
  </defs>

  <!-- Gradient rounded square background -->
  <rect width="5120" height="5120" rx="1050" fill="url(#a)"/>

  <!-- White background circle -->
  <circle cx="2560" cy="2560" r="2240" fill="white"/>

  <!-- Compass ticks -->
  <path stroke="#ff3000" stroke-width="30" d="
    M2560 540v330m0 3370v330
    m350-4e3-57 325m-586 3318-57 327
    M3250 662l-113 310M1984 4138l-113 310
    m339-3878 57 325m586 3318 57 327
    M1870 662l113 310m1152 3166 113 310
    M1552 810l166 286m1685 2918 165 286
    M1265 1010l212 253m2166 2582 212 253
    M1015 1258l253 212m2582 2168 253 212
    M813 1548l286 165m2920 1685 286 165
    M665 1866l310 113m3166 1150 310 113
    M574 2202l326 58m3320 588 325 57
    M545 2555h330m3370 0h330
    M575 2905l325-57m3320-586 325-57
    M668 3245l310-113m3165-1152 310-113
    M815 3563l286-165m2920-1685 286-165
    M1016 3850l253-212m2580-2166 253-212
    M1262 41e2l212-253m2166-2582 212-253
    M1552 43e2l166-286m1685-2918 165-286
    M2384 548l16 180m320 3656 16 180
    M2038 610l47 174m950 3544 47 174
    M1708 730l76 163m1550 3326 77 163
    M1404 904l103 148m2106 3006 103 148
    M1135 1130l127 127m2596 2596 127 127
    M910 14e2l148 103m3006 2107 146 1e2
    M734 1703l163 76m3326 1550 163 77
    M614 2033l174 47m3544 950 174 47
    M553 2380l180 16m3656 320 180 16m-4014 0 180-16m3656-320 180-16
    M614 3077l174-47m3544-950 174-47
    M734 3407l163-76m3326-1550 163-76
    M910 3710l148-103m3006-2107 146-1e2
    M1404 4206l103-148m2105-3006 104-148
    M1708 4380l77-163M3335 890l77-163
    M2038 45e2l47-174m950-3544 47-174m-698 3952 16-180m320-3656 16-180
  "/>

  <!-- Centered Brave lion -->
  <g transform="translate(621,805) scale(1.4)">
    <!-- Red lion shape on top -->
    <path fill="#ff3000" d="M1935 524s287 347 287 420c0 75-36 94-72 133l-215 230c-20 20-63 54-38 113 25 60 60 134 20 210-40 77-110 128-155 120a820 820 0 01-190-90c-38-25-160-126-160-165s126-110 150-124c23-16 130-78 132-102s2-30-30-90-88-140-80-192c10-52 100-80 167-105l207-78c16-8 12-15-36-20-48-4-183-22-244-5s-163 43-173 57c-8 14-16 14-7 62l58 315c4 40 12 67-30 77-44 10-117 27-142 27s-99-17-142-27-35-37-30-77c4-40 48-268 57-315 10-48 1-48-7-62-10-14-113-40-174-57-60-17-196 1-244 6-48 4-52 10-36 20l207 77c66 25 158 53 167 105 10 53-47 132-80 192s-32 66-30 90 110 86 132 102c24 15 150 85 150 124s-119 140-159 165a820 820 0 01-190 90c-45 8-115-43-156-120-40-76-4-150 20-210 25-60-17-92-38-113l-215-230c-35-37-71-57-71-131s287-420 287-420l273 44c32 0 103-27 168-50 65-20 110-22 110-22s44 0 110 22 136 50 168 50c33 0 275-47 275-47zm-215 1328c18 10 7 32-10 44l-254 198c-20 20-52 50-73 50s-52-30-73-50a13200 13200 0 00-255-198c-16-12-27-33-10-44l150-80a870 870 0 01188-73c15 0 110 34 187 73l150 80z"/>
  </g>
</svg>